{"accessors":[{"name":"crownbase_low_Mesh.003_1_0_positions","componentType":5126,"count":2170,"min":[-2.075911045074463,-0.7439349889755249,-1.0053260326385498],"max":[2.7607100009918213,1.7519220113754272,3.9059059619903564],"type":"VEC3","bufferView":0,"byteOffset":0},{"name":"crownbase_low_Mesh.003_1_0_normals","componentType":5126,"count":2170,"min":[-0.9989182353019714,-0.9879223108291626,-0.9997667074203491],"max":[1,0.7268421649932861,0.9997667074203491],"type":"VEC3","bufferView":1,"byteOffset":0},{"name":"crownbase_low_Mesh.003_1_0_texcoords","componentType":5126,"count":2170,"min":[0,0.3444499969482422],"max":[0.9999880194664001,1],"type":"VEC2","bufferView":2,"byteOffset":0},{"name":"crownbase_low_Mesh.003_1_0_indices","componentType":5123,"count":9126,"min":[0],"max":[2169],"type":"SCALAR","bufferView":3,"byteOffset":0},{"name":"tips_low_Mesh.004_1_0_positions","componentType":5126,"count":2502,"min":[-2.16190505027771,1.7350590229034424,-1.0763150453567505],"max":[2.8231279850006104,2.037142038345337,3.9820570945739746],"type":"VEC3","bufferView":0,"byteOffset":26040},{"name":"tips_low_Mesh.004_1_0_normals","componentType":5126,"count":2502,"min":[-0.9954774379730225,-1,-0.9954774379730225],"max":[0.9954774379730225,0.9713364243507385,0.9954774379730225],"type":"VEC3","bufferView":1,"byteOffset":26040},{"name":"tips_low_Mesh.004_1_0_texcoords","componentType":5126,"count":2502,"min":[0,0.0001849999971454963],"max":[0.9968129992485046,0.9990630149841309],"type":"VEC2","bufferView":2,"byteOffset":17360},{"name":"tips_low_Mesh.004_1_0_indices","componentType":5123,"count":11610,"min":[0],"max":[2501],"type":"SCALAR","bufferView":3,"byteOffset":18252},{"name":"diamonds_low_Mesh.005_1_0_positions","componentType":5126,"count":765,"min":[-1.6098769903182983,-0.3967989981174469,-0.6453850269317627],"max":[2.5254790782928467,-0.1891240030527115,3.5512189865112305],"type":"VEC3","bufferView":0,"byteOffset":56064},{"name":"diamonds_low_Mesh.005_1_0_normals","componentType":5126,"count":765,"min":[-0.9997815489768982,-1,-1],"max":[1,1,1],"type":"VEC3","bufferView":1,"byteOffset":56064},{"name":"diamonds_low_Mesh.005_1_0_texcoords","componentType":5126,"count":765,"min":[0.000003000000106112566,0.2892259955406189],"max":[0.9999989867210388,0.9205449819564819],"type":"VEC2","bufferView":2,"byteOffset":37376},{"name":"diamonds_low_Mesh.005_1_0_indices","componentType":5123,"count":4212,"min":[0],"max":[764],"type":"SCALAR","bufferView":3,"byteOffset":41472}],"asset":{"generator":"obj2gltf","version":"2.0"},"buffers":[{"name":"ironCrown","byteLength":223880,"uri":"data:application/octet-stream;base64,"}],"bufferViews":[{"name":"bufferView_0","buffer":0,"byteLength":65244,"byteOffset":0,"byteStride":12,"target":34962},{"name":"bufferView_1","buffer":0,"byteLength":65244,"byteOffset":65244,"byteStride":12,"target":34962},{"name":"bufferView_2","buffer":0,"byteLength":43496,"byteOffset":130488,"byteStride":8,"target":34962},{"name":"bufferView_3","buffer":0,"byteLength":49896,"byteOffset":173984,"target":34963}],"materials":[{"name":"None","pbrMetallicRoughness":{"baseColorFactor":[0.5,0.5,0.5,1],"metallicFactor":0,"roughnessFactor":1},"emissiveFactor":[0,0,0],"alphaMode":"OPAQUE","doubleSided":false}],"meshes":[{"name":"crownbase_low_Mesh.003_1","primitives":[{"attributes":{"POSITION":0,"NORMAL":1,"TEXCOORD_0":2},"indices":3,"material":0,"mode":4}]},{"name":"tips_low_Mesh.004_1","primitives":[{"attributes":{"POSITION":4,"NORMAL":5,"TEXCOORD_0":6},"indices":7,"material":0,"mode":4}]},{"name":"diamonds_low_Mesh.005_1","primitives":[{"attributes":{"POSITION":8,"NORMAL":9,"TEXCOORD_0":10},"indices":11,"material":0,"mode":4}]}],"nodes":[{"name":"crownbase_low_Mesh.003","mesh":0},{"name":"tips_low_Mesh.004","mesh":1},{"name":"diamonds_low_Mesh.005","mesh":2}],"scene":0,"scenes":[{"nodes":[0,1,2]}]}